<svg xmlns="http://www.w3.org/2000/svg" xmlns:xlink="http://www.w3.org/1999/xlink" width="500" zoomAndPan="magnify" viewBox="0 0 375 374.999991" height="500" preserveAspectRatio="xMidYMid meet" version="1.0"><defs><clipPath id="78bb45c512"><path d="M 39.75 72 L 327 72 L 327 361 L 39.75 361 Z M 39.75 72 " clip-rule="nonzero"/></clipPath><clipPath id="67a04c1b78"><path d="M 40 111 L 327 111 L 327 361.148438 L 40 361.148438 Z M 40 111 " clip-rule="nonzero"/></clipPath><clipPath id="e9126d0e2a"><path d="M 85 5.648438 L 299 5.648438 L 299 208 L 85 208 Z M 85 5.648438 " clip-rule="nonzero"/></clipPath></defs><g clip-path="url(#78bb45c512)"><path fill="#e9f1fc" d="M 326.992188 116.265625 L 326.992188 163.359375 L 316.488281 166.714844 L 316.488281 301.144531 L 277.804688 316.519531 L 276.972656 316.847656 C 277.011719 316.289062 277.03125 315.726562 277.03125 315.164062 C 277.03125 310.78125 273.375 307.125 269 307.125 C 266.699219 307.125 264.609375 308.140625 263.132812 309.734375 C 262.957031 309.769531 262.78125 309.800781 262.605469 309.847656 C 262.371094 309.914062 262.148438 309.992188 261.925781 310.074219 C 259.789062 309.289062 257.359375 309.398438 255.207031 310.660156 C 253.539062 311.636719 252.316406 313.234375 251.6875 315.027344 C 251.425781 314.925781 251.15625 314.828125 250.867188 314.75 C 247.308594 313.769531 242.449219 315.929688 241.796875 319.90625 C 241.589844 321.160156 241.398438 322.421875 241.214844 323.683594 C 237.777344 325.261719 236.390625 329.207031 237.039062 332.707031 L 236.132812 333.070312 L 166.101562 360.890625 L 121.925781 335.933594 L 120.523438 335.140625 C 120.660156 332.234375 119.1875 329.355469 116.578125 327.730469 C 114.316406 326.324219 113.195312 325.296875 111.15625 322.902344 C 110.664062 322.332031 110.367188 321.851562 109.472656 320.507812 C 108.488281 319.03125 107.582031 317.503906 106.671875 315.984375 C 105.472656 313.988281 103.839844 312.855469 102.089844 312.390625 C 101.890625 312.246094 101.6875 312.101562 101.480469 311.976562 C 100.253906 309.867188 98.050781 308.34375 94.867188 308.34375 C 89.734375 308.34375 87.152344 312.289062 87.105469 316.273438 L 86.222656 315.777344 L 47.371094 293.832031 L 47.371094 151.382812 L 39.765625 148.273438 L 39.765625 111.234375 L 186.347656 72.828125 Z M 326.992188 116.265625 " fill-opacity="1" fill-rule="nonzero"/></g><g clip-path="url(#67a04c1b78)"><path fill="#617eb7" d="M 325.625 118.976562 C 323.824219 118.859375 322.179688 119.265625 320.53125 120.019531 C 317.582031 121.371094 314.75 121.996094 311.597656 122.664062 C 305.195312 124.019531 298.839844 126.347656 292.542969 128.148438 C 278.589844 132.136719 264.261719 135.046875 250.207031 138.695312 C 243.5625 140.417969 236.945312 142.289062 230.269531 143.878906 C 223.777344 145.425781 217.152344 146.332031 210.652344 147.828125 C 197.664062 150.824219 185.054688 155.414062 171.792969 157.191406 C 171.714844 157.132812 171.613281 157.09375 171.5 157.070312 C 169.027344 156.632812 167.449219 155.027344 165.105469 154.433594 C 162.277344 153.714844 159.484375 152.40625 156.738281 151.398438 C 151.199219 149.371094 145.804688 147.078125 140.222656 145.132812 C 128.5625 141.078125 116.886719 137.113281 105.078125 133.503906 C 93.433594 129.9375 82.453125 125.113281 71.109375 120.746094 C 65.359375 118.535156 59.574219 116.417969 53.761719 114.390625 C 49.832031 113.019531 45.273438 110.503906 41.019531 111.277344 C 40.527344 111.367188 40.671875 112.101562 41.136719 112.117188 C 46.257812 112.304688 51.71875 115.234375 56.511719 116.929688 C 62.765625 119.132812 69.054688 121.367188 75.164062 123.953125 C 85.410156 128.285156 95.640625 132.179688 106.277344 135.441406 C 117.550781 138.898438 128.6875 142.734375 139.808594 146.648438 C 145.375 148.609375 150.789062 150.886719 156.304688 152.976562 C 158.636719 153.859375 160.941406 154.816406 163.296875 155.640625 C 165.695312 156.484375 167.875 157.933594 170.332031 158.515625 C 170.535156 174.257812 170.742188 190.023438 171.085938 205.796875 C 170.488281 205.355469 169.878906 204.921875 169.21875 204.5625 C 166.832031 203.257812 164.207031 202.265625 161.746094 201.105469 C 156.402344 198.582031 150.992188 196.203125 145.644531 193.679688 C 134.25 188.308594 122.453125 183.78125 110.976562 178.570312 C 90.046875 169.070312 68.570312 160.84375 48.078125 150.484375 C 47.175781 150.03125 46.429688 151.292969 47.285156 151.84375 C 51.882812 154.789062 57.222656 156.257812 61.847656 159.21875 C 66.484375 162.1875 71.941406 164.304688 76.914062 166.65625 C 88.15625 171.972656 99.820312 176.484375 111.15625 181.625 C 122.597656 186.816406 134.34375 191.339844 145.703125 196.691406 C 151.070312 199.222656 156.507812 201.609375 161.878906 204.144531 C 162.542969 204.457031 163.25 204.835938 163.988281 205.242188 C 163.941406 205.386719 163.910156 205.546875 163.910156 205.726562 L 163.910156 206.03125 C 163.914062 231.785156 163.917969 257.539062 163.921875 283.292969 C 163.921875 295.914062 163.925781 308.539062 163.957031 321.160156 C 163.988281 334.121094 163.605469 347.164062 164.53125 360.101562 C 165.019531 360.441406 165.515625 360.773438 166.03125 361.066406 C 166.152344 360.964844 166.28125 360.898438 166.410156 360.867188 C 167.363281 348.277344 166.996094 335.585938 167.027344 322.964844 C 167.058594 309.738281 167.066406 296.515625 167.070312 283.292969 C 167.070312 257.832031 167.074219 232.371094 167.078125 206.910156 C 168.496094 207.625 169.949219 208.25 171.367188 208.546875 C 171.90625 209.382812 173.21875 209.304688 173.859375 208.664062 C 174.039062 208.59375 174.175781 208.4375 174.230469 208.261719 C 174.351562 208.332031 174.480469 208.394531 174.628906 208.441406 C 175.40625 208.503906 177.195312 208.15625 177.953125 208.039062 C 181.226562 207.523438 184.480469 206.679688 187.734375 206.050781 C 194.15625 204.8125 200.464844 203.414062 206.75 201.613281 C 219.613281 197.933594 232.527344 194.238281 245.304688 190.269531 C 257.433594 186.5 269.820312 183.859375 282.074219 180.527344 C 288.1875 178.867188 294.320312 177.285156 300.382812 175.453125 C 305.105469 174.023438 311.203125 172.972656 315.527344 170.257812 C 315.542969 170.277344 315.570312 170.289062 315.589844 170.304688 C 315.871094 170.015625 316.273438 169.824219 316.796875 169.824219 C 316.878906 169.824219 316.953125 169.835938 317.027344 169.84375 C 317.027344 169.816406 317.039062 169.792969 317.039062 169.761719 C 317.046875 169.460938 317.054688 169.164062 317.0625 168.867188 C 317.214844 168.1875 316.804688 167.574219 316.234375 167.382812 C 315.757812 167.53125 315.273438 167.648438 314.785156 167.738281 C 310.21875 170.234375 304.628906 171.441406 299.695312 172.960938 C 293.644531 174.828125 287.496094 176.367188 281.390625 178.042969 C 269.675781 181.257812 257.722656 183.589844 246.15625 187.304688 C 222.601562 194.878906 198.558594 202.253906 174.171875 206.59375 C 174.238281 190.59375 173.414062 174.394531 172.242188 158.480469 C 177.28125 158.5 182.726562 157.082031 187.574219 156.011719 C 193.9375 154.609375 200.125 152.492188 206.464844 150.996094 C 220.101562 147.78125 233.839844 145.230469 247.457031 141.875 C 261.050781 138.523438 274.730469 135.546875 288.328125 132.230469 C 294.855469 130.640625 301.253906 128.625 307.695312 126.746094 C 310.804688 125.839844 313.886719 125.121094 317.054688 124.484375 C 317.378906 124.417969 317.695312 124.332031 318.003906 124.234375 C 318.199219 124.0625 318.445312 123.925781 318.761719 123.855469 C 318.964844 123.808594 319.164062 123.757812 319.367188 123.707031 C 321.089844 122.953125 322.710938 121.980469 324.617188 121.800781 C 324.65625 121.835938 324.699219 121.859375 324.742188 121.890625 C 324.953125 121.832031 325.167969 121.773438 325.378906 121.71875 C 325.921875 121.480469 326.46875 121.242188 327 120.976562 C 327.007812 120.929688 327.023438 120.886719 327.023438 120.835938 C 327.023438 120.683594 327.023438 120.53125 327.023438 120.378906 C 327.023438 119.578125 326.382812 119.027344 325.625 118.976562 Z M 325.625 118.976562 " fill-opacity="1" fill-rule="nonzero"/></g><path fill="#b0bef2" d="M 278.582031 305.40625 C 278.40625 309.121094 278.050781 312.8125 277.800781 316.519531 L 236.128906 333.070312 C 236.210938 330.390625 236.351562 327.722656 236.320312 325.042969 C 236.222656 316.28125 235.59375 307.527344 235.773438 298.769531 C 236.167969 280.386719 235.136719 261.796875 234.414062 243.433594 C 234.074219 234.863281 233.699219 226.414062 234.402344 217.84375 C 235.117188 209.101562 235.539062 200.488281 235.757812 191.71875 C 235.964844 183.277344 235.4375 174.871094 235.609375 166.441406 C 235.730469 160.902344 236.058594 155.386719 236.09375 149.863281 C 235.5 150.171875 234.769531 150.070312 234.378906 149.398438 C 234.230469 148.9375 233.921875 148.644531 233.445312 148.527344 C 233.207031 148.417969 233.171875 148.191406 233.253906 147.996094 C 229.820312 145.683594 226.652344 142.738281 223.398438 140.277344 C 218.375 136.476562 213.296875 132.714844 208.148438 129.078125 C 202.996094 125.4375 197.425781 122.28125 192.402344 118.476562 C 188.011719 115.15625 183.835938 111.171875 178.554688 109.34375 C 177.269531 110.90625 175.835938 112.222656 174.636719 112.980469 C 168.96875 116.566406 162.746094 119.164062 157.183594 122.976562 C 151.230469 127.054688 145.871094 131.992188 141.203125 137.5 C 131.894531 148.472656 127.429688 161.75 127.867188 176.164062 C 127.894531 176.976562 126.554688 177.1875 126.425781 176.355469 C 126.371094 176 126.316406 175.652344 126.289062 175.292969 C 126.144531 177.222656 125.96875 179.164062 125.933594 181.164062 C 125.839844 186.019531 126.417969 190.820312 126.589844 195.667969 C 126.9375 205.628906 125.59375 215.753906 125.285156 225.726562 C 124.652344 245.785156 124.113281 265.835938 123.457031 285.902344 C 122.917969 302.574219 122.070312 319.273438 121.921875 335.933594 L 86.222656 315.777344 C 86.488281 307.546875 86.542969 299.324219 86.816406 291.09375 C 87.4375 272.046875 87.792969 253 89.125 233.996094 C 90.496094 214.445312 90.890625 194.628906 91.0625 175.03125 C 91.109375 169.992188 91.179688 164.945312 91.511719 159.914062 C 91.800781 155.542969 92.679688 151.125 92.742188 146.753906 C 92.789062 143.179688 92.660156 139.585938 92.53125 136.007812 C 92.46875 134.335938 92.332031 132.523438 92.960938 130.953125 C 92.46875 130.871094 92.339844 130.109375 92.898438 129.9375 C 102.535156 126.855469 111.640625 122.042969 121.210938 118.679688 C 126.480469 116.824219 130.992188 113.4375 136.058594 111.117188 C 140.542969 109.058594 145.09375 107.203125 149.714844 105.492188 C 149.648438 104.679688 149.476562 103.890625 149.210938 103.125 C 149.101562 102.710938 149.6875 102.292969 149.988281 102.675781 C 150.433594 103.242188 150.867188 103.746094 151.339844 104.210938 C 152.738281 103.390625 153.933594 100.992188 155.75 101.222656 C 157.769531 101.488281 159.449219 101.625 161.277344 101.09375 C 161.804688 100.890625 162.328125 100.679688 162.855469 100.472656 C 163.75 100.042969 164.671875 99.546875 165.621094 99.246094 C 166.035156 99.117188 166.453125 98.992188 166.882812 98.871094 C 169.066406 98.003906 171.25 97.117188 173.421875 96.21875 C 173.953125 94.464844 174.964844 92.882812 176.335938 91.894531 C 180.246094 89.085938 185.53125 89.167969 190.144531 89.28125 C 190.347656 89.289062 190.539062 89.289062 190.738281 89.304688 C 196.363281 87.304688 202.0625 85.191406 206.675781 81.890625 C 207.105469 81.578125 207.507812 82.230469 207.203125 82.585938 C 204.320312 86.042969 200.464844 88.335938 196.320312 90.195312 C 200.804688 91.355469 205.160156 93.46875 209.125 95.617188 C 215.5625 99.109375 221.167969 103.746094 226.996094 108.128906 C 233.316406 112.871094 240.183594 116.449219 246.914062 120.535156 C 251.179688 123.121094 255.421875 125.738281 259.78125 128.144531 C 258.871094 128.503906 258.667969 130.054688 259.859375 130.339844 C 263.140625 131.125 265.921875 133.066406 268.355469 135.445312 C 269.863281 138.019531 271.28125 140.65625 273.351562 142.84375 C 273.433594 142.929688 273.519531 142.992188 273.609375 143.046875 C 274.515625 147.953125 275.234375 152.898438 275.644531 157.875 C 276.65625 170.265625 276.601562 182.832031 277.132812 195.261719 C 278.15625 219.601562 277.34375 243.882812 277.953125 268.226562 C 278.277344 280.53125 279.15625 293.109375 278.582031 305.40625 Z M 278.582031 305.40625 " fill-opacity="1" fill-rule="nonzero"/><g clip-path="url(#e9126d0e2a)"><path fill="#b0bef2" d="M 296.671875 171.90625 C 297.257812 173.046875 297.890625 174.152344 298.539062 175.246094 C 298.0625 175.328125 297.542969 175.242188 297.171875 174.929688 C 297.109375 174.882812 297.039062 174.828125 296.972656 174.773438 C 296.847656 174.734375 296.726562 174.679688 296.617188 174.609375 C 289.0625 170.976562 281.804688 166.769531 274.480469 162.710938 C 271.164062 160.871094 265.777344 159.160156 263.136719 156.007812 C 263.101562 156.070312 263.042969 156.125 262.980469 156.171875 C 261.894531 158.769531 261.539062 162.957031 261.042969 165.515625 C 260.25 169.714844 259.171875 174.066406 257.757812 178.101562 C 257.707031 178.242188 257.65625 178.390625 257.605469 178.535156 C 256.445312 180.941406 255.199219 183.304688 253.945312 185.660156 C 251.84375 189.605469 249.707031 193.597656 247.339844 197.421875 C 245.382812 195.289062 245.035156 190.582031 244.285156 187.984375 C 242.878906 183.039062 241.308594 178.128906 239.574219 173.289062 C 235.78125 162.738281 230.605469 152.75 224.695312 143.238281 C 218.90625 133.921875 212.632812 125.304688 205.78125 116.773438 C 202.730469 112.972656 200.402344 108.671875 197.042969 105.097656 C 194.933594 102.847656 192.960938 100.570312 190.503906 98.6875 C 190.464844 98.660156 188.941406 97.1875 188.0625 96.554688 C 187.617188 97.011719 186.941406 97.085938 186.339844 96.875 C 186.089844 96.882812 185.835938 96.839844 185.609375 96.703125 C 183.132812 100.074219 181.816406 104.328125 179.625 107.886719 C 177.304688 111.636719 175.214844 115.265625 173.441406 119.308594 C 165.078125 138.390625 158.1875 157.691406 154.832031 178.347656 C 153.296875 187.820312 153.09375 197.285156 152.179688 206.796875 C 152.125 207.363281 151.871094 207.734375 151.535156 207.941406 C 147.039062 200.910156 142.734375 193.757812 138.324219 186.667969 C 138.058594 186.0625 137.792969 185.457031 137.523438 184.855469 C 136.117188 181.75 135.15625 178.511719 133.996094 175.308594 C 133.824219 174.84375 133.613281 173.671875 133.394531 172.613281 C 129.488281 176.5 124.671875 179.417969 120.972656 183.632812 C 116.910156 188.257812 111.941406 193.160156 108.746094 198.390625 C 108.675781 198.507812 108.546875 198.621094 108.402344 198.660156 C 108.324219 198.085938 108.230469 197.507812 108.125 196.933594 C 108.386719 195.445312 107.820312 193.566406 107.785156 192.164062 C 107.722656 189.320312 107.867188 186.511719 108.269531 183.695312 C 109.109375 177.804688 110.445312 171.953125 111.90625 166.191406 C 114.800781 154.789062 119.375 143.386719 125.914062 133.582031 C 132.410156 123.84375 140.226562 114.441406 149.140625 106.824219 C 149.78125 106.277344 150.425781 105.726562 151.085938 105.1875 C 149.105469 105.398438 147.113281 105.753906 145.132812 105.597656 C 143.175781 105.441406 141.242188 106.359375 139.3125 106.191406 C 135.230469 105.84375 131.113281 104.867188 126.984375 104.875 C 122.535156 104.886719 118.601562 104.609375 114.574219 102.554688 C 110.808594 100.632812 106.308594 99.453125 103.128906 96.574219 C 91.871094 86.359375 82.078125 69.585938 86.738281 54.328125 C 87.214844 51.910156 87.8125 49.332031 88.882812 47.214844 C 92.023438 41.011719 95.472656 34.953125 99.425781 29.230469 C 103.039062 23.996094 107.242188 19.027344 111.300781 14.136719 C 112.507812 12.683594 114.375 9.589844 116.441406 8.511719 C 116.910156 7.910156 117.378906 7.308594 117.847656 6.707031 C 118.621094 6.386719 119.378906 6.054688 120.128906 5.707031 C 122.351562 5.753906 124.578125 5.832031 126.800781 5.980469 C 137.023438 6.664062 146.152344 9.828125 154.96875 14.929688 C 167.714844 22.308594 178.417969 32.652344 184.273438 46.011719 C 184.714844 46.445312 185.125 46.910156 185.441406 47.476562 C 186.5625 49.484375 187.507812 51.636719 188.210938 53.832031 C 189.972656 59.34375 191.296875 65.054688 192.164062 70.773438 C 192.34375 71.972656 192.453125 73.175781 192.519531 74.371094 C 194.746094 71.148438 196.757812 67.765625 199.296875 64.738281 C 206.039062 56.691406 214.304688 50.855469 223.417969 45.761719 C 232.695312 40.578125 242.46875 36.25 252.523438 32.8125 C 262.578125 29.367188 273.199219 25.71875 283.976562 26.796875 C 284.042969 26.785156 284.105469 26.78125 284.167969 26.78125 C 289.175781 33.40625 292.105469 42.019531 295.011719 49.710938 C 297.328125 55.835938 300.410156 61.527344 297.859375 68.140625 C 295.773438 73.542969 290.746094 77.917969 286.433594 81.550781 C 277.230469 89.304688 266.058594 93.867188 254.523438 96.964844 C 248.292969 98.636719 241.90625 99.71875 235.480469 100.265625 C 238.148438 102.652344 240.660156 105.140625 242.988281 107.410156 C 250.605469 114.851562 257.894531 122.671875 265.015625 130.589844 C 272.316406 138.703125 279.265625 147.042969 286.121094 155.53125 C 288.84375 158.886719 290.636719 163.257812 293.703125 166.300781 C 293.707031 166.304688 293.710938 166.304688 293.710938 166.308594 C 294.085938 166.8125 294.449219 167.320312 294.800781 167.847656 C 295.402344 169.234375 296.003906 170.605469 296.671875 171.90625 Z M 296.671875 171.90625 " fill-opacity="1" fill-rule="nonzero"/></g><path fill="#617eb7" d="M 299.160156 62.765625 C 299.160156 63.507812 298.6875 64.25 297.730469 64.246094 C 297.574219 64.246094 297.433594 64.242188 297.304688 64.234375 C 293.835938 64.167969 290.546875 63.1875 286.960938 63.5625 C 282.820312 63.992188 278.765625 64.828125 274.738281 65.859375 C 266.808594 67.894531 258.933594 70.097656 251.1875 72.746094 C 242.804688 75.609375 234.566406 78.855469 226.488281 82.5 C 220.703125 85.109375 214.996094 88.894531 209.03125 91.167969 C 218.269531 92.621094 227.378906 94.828125 235.933594 98.714844 C 236.753906 99.085938 236.800781 99.980469 236.425781 100.636719 C 233.160156 99.644531 229.824219 98.859375 226.535156 97.921875 C 220.65625 96.25 214.890625 94.128906 208.722656 93.917969 C 208.625 93.917969 208.535156 93.921875 208.453125 93.9375 C 208.253906 93.90625 208.058594 93.863281 207.859375 93.832031 C 202.722656 92.980469 197.515625 92.304688 192.316406 91.972656 C 189.953125 91.824219 187.113281 92.082031 184.726562 91.523438 C 184.550781 91.640625 184.332031 91.710938 184.066406 91.707031 C 183.84375 91.703125 183.625 91.710938 183.40625 91.714844 C 185.046875 93.222656 187.027344 94.261719 188.78125 95.660156 C 191.339844 97.703125 193.816406 99.871094 196.082031 102.230469 C 200.09375 106.40625 203.53125 111.046875 207.023438 115.65625 C 210.9375 120.824219 214.636719 125.929688 218.144531 131.371094 C 218.234375 131.507812 218.335938 131.636719 218.429688 131.773438 C 218.8125 132.628906 219.363281 133.390625 219.890625 134.167969 C 220.75 136.132812 221.53125 138.132812 222.480469 140.058594 C 222.378906 140.089844 222.273438 140.113281 222.160156 140.117188 C 222.023438 139.992188 221.882812 139.867188 221.742188 139.746094 C 221.421875 139.359375 221.105469 138.96875 220.769531 138.597656 C 220.769531 138.59375 220.769531 138.589844 220.773438 138.585938 C 220.394531 137.726562 219.75 136.921875 219.0625 136.175781 C 217.773438 133.933594 216.230469 131.824219 214.445312 129.980469 C 211.335938 124.871094 207.476562 120.234375 203.882812 115.460938 C 199.875 110.132812 195.910156 104.886719 190.964844 100.378906 C 189.722656 99.25 188.367188 98.15625 187.019531 97.039062 C 187.007812 97.054688 187.003906 97.074219 186.988281 97.089844 C 184.980469 99.601562 183.921875 102.542969 182.382812 105.324219 C 181.695312 106.5625 180.640625 109.59375 179.042969 109.777344 C 179.015625 109.777344 178.980469 109.753906 178.976562 109.726562 C 178.597656 107.597656 180.625 104.90625 181.484375 103.082031 C 182.617188 100.667969 183.769531 98.316406 185.398438 96.207031 C 185.445312 96.074219 185.519531 95.953125 185.621094 95.847656 C 184.179688 94.597656 182.820312 93.28125 181.695312 91.824219 C 176.367188 92.421875 170.851562 95.140625 166.050781 97.085938 C 161.375 98.984375 157.191406 102.496094 152.625 104.574219 C 151.667969 105.128906 150.695312 105.707031 149.808594 106.445312 C 146.152344 109.476562 142.789062 112.742188 139.703125 116.359375 C 133.15625 124.03125 128.152344 133.046875 123.085938 141.734375 C 118.226562 150.058594 115.09375 159.242188 112.808594 168.574219 C 110.539062 177.851562 108.839844 187.390625 109.191406 196.960938 C 109.605469 196.292969 110.136719 195.675781 110.652344 195.035156 C 112.628906 192.597656 114.398438 190.003906 116.449219 187.628906 C 117.714844 186.167969 119.078125 184.792969 120.453125 183.433594 C 122.453125 182.015625 124.527344 180.664062 126.167969 178.851562 C 126.1875 179.652344 126.226562 180.453125 126.308594 181.265625 C 123.953125 183.621094 121.359375 185.753906 119.117188 188.246094 C 115.824219 191.898438 113.007812 196.292969 109.285156 199.53125 C 109.121094 200.183594 107.976562 200.277344 107.84375 199.523438 C 106.066406 189.605469 107.945312 179.113281 110.277344 169.429688 C 112.554688 159.972656 115.40625 150.324219 120.335938 141.867188 C 128.914062 127.15625 138.554688 107.839844 154.765625 100.058594 C 158.144531 97.753906 162.359375 96.050781 165.433594 94.855469 C 168.582031 93.632812 171.867188 92.113281 175.230469 90.96875 C 175.21875 90.886719 175.214844 90.804688 175.21875 90.722656 C 173.046875 87.289062 169.160156 84.027344 166.296875 81.394531 C 162.460938 77.871094 158.410156 74.574219 154.082031 71.675781 C 146.714844 66.75 138.84375 62.535156 130.488281 59.542969 C 122.242188 56.59375 113.523438 54.222656 104.71875 54.046875 C 100.136719 53.953125 95.628906 54.300781 91.179688 55.445312 C 89.953125 55.757812 87.8125 56.675781 86.5 56.0625 C 86.472656 56.054688 86.453125 56.046875 86.429688 56.035156 C 86.398438 56.019531 86.359375 56.011719 86.328125 55.996094 C 86.308594 55.980469 86.296875 55.960938 86.277344 55.949219 C 86.273438 55.945312 86.273438 55.941406 86.269531 55.9375 C 86.097656 55.804688 86.03125 55.628906 86.039062 55.449219 C 86.03125 55.269531 86.097656 55.09375 86.269531 54.957031 C 86.273438 54.957031 86.273438 54.953125 86.277344 54.949219 C 86.296875 54.933594 86.308594 54.914062 86.328125 54.902344 C 99.851562 46.742188 120.472656 52.570312 134.023438 57.878906 C 150.898438 64.488281 167.425781 75.050781 178.519531 89.652344 C 178.589844 89.746094 178.632812 89.855469 178.667969 89.96875 C 180.457031 89.546875 182.257812 89.285156 184.066406 89.304688 C 184.332031 89.304688 184.554688 89.382812 184.726562 89.507812 C 186.328125 88.75 188.976562 89.152344 190.527344 89.253906 C 190.695312 85.628906 191.398438 82.015625 191.457031 78.417969 C 191.480469 76.917969 191.125 74.648438 192.808594 74.039062 C 192.945312 73.988281 193.101562 74.070312 193.171875 74.1875 C 194.074219 75.628906 193.789062 78.75 193.800781 80.445312 C 193.820312 83.449219 193.992188 86.449219 194.058594 89.453125 C 197.816406 89.703125 201.570312 90.109375 205.292969 90.617188 C 205.816406 90.6875 206.332031 90.773438 206.855469 90.847656 C 212.800781 85.804688 221.480469 82.550781 228.511719 79.359375 C 236.242188 75.851562 244.105469 72.625 252.117188 69.820312 C 260.300781 66.953125 268.660156 64.375 277.101562 62.386719 C 280.839844 61.507812 284.679688 60.652344 288.535156 60.507812 C 291.679688 60.386719 294.691406 61.273438 297.730469 61.285156 C 298.6875 61.285156 299.160156 62.027344 299.160156 62.765625 Z M 265.332031 157.136719 C 265.097656 157.039062 264.863281 156.941406 264.628906 156.84375 C 264.390625 156.742188 264.152344 156.640625 263.910156 156.539062 C 263.675781 156.441406 263.445312 156.34375 263.210938 156.246094 C 263.117188 156.207031 263.03125 156.15625 262.957031 156.101562 C 262.570312 156.328125 262.289062 156.695312 262.292969 157.203125 C 260.847656 165.535156 258.03125 173.484375 254.523438 181.160156 C 253.074219 184.324219 251.394531 187.371094 249.914062 190.519531 C 249.125 192.195312 248.070312 193.957031 247.433594 195.777344 C 246.597656 193.742188 245.769531 190.433594 245.449219 189.210938 C 244.667969 186.246094 243.605469 183.351562 242.675781 180.433594 C 241.023438 175.265625 239.082031 168.445312 235.847656 164.078125 C 235.640625 163.804688 235.09375 163.847656 235.128906 164.269531 C 235.636719 170.410156 239.390625 176.472656 240.890625 182.480469 C 241.632812 185.472656 242.359375 188.898438 243.5625 191.730469 C 244.378906 193.648438 244.984375 197.40625 246.46875 199.011719 C 246.613281 199.167969 246.769531 199.257812 246.929688 199.320312 C 247.441406 198.738281 247.949219 198.15625 248.460938 197.574219 C 248.433594 197.519531 248.386719 197.464844 248.347656 197.410156 C 248.660156 197.125 248.949219 196.804688 249.21875 196.464844 C 249.242188 196.40625 249.265625 196.355469 249.285156 196.300781 C 249.359375 196.09375 249.496094 195.960938 249.652344 195.875 C 250.546875 194.558594 251.222656 193.023438 251.921875 191.691406 C 253.792969 188.136719 255.8125 184.675781 257.5625 181.054688 C 261.046875 173.847656 263.410156 166.207031 265.125 158.40625 C 266.433594 159.304688 267.976562 159.984375 269.316406 160.789062 C 271.578125 161.742188 273.777344 162.835938 276.011719 163.855469 C 276.246094 163.722656 276.394531 163.492188 276.457031 163.234375 C 273.070312 160.570312 269.277344 158.8125 265.335938 157.140625 L 265.335938 157.136719 Z M 265.332031 157.136719 " fill-opacity="1" fill-rule="nonzero"/></svg>