<?xml version="1.0" encoding="iso-8859-1"?>
<!-- Uploaded to: SVG Repo, www.svgrepo.com, Generator: SVG Repo Mixer Tools -->
<svg fill="#000000" height="800px" width="800px" version="1.1" id="Layer_1" xmlns="http://www.w3.org/2000/svg" xmlns:xlink="http://www.w3.org/1999/xlink" 
	 viewBox="0 0 512.001 512.001" xml:space="preserve">
<g>
	<g>
		<path d="M325.334,187.849c-0.157-0.77-0.386-1.531-0.687-2.254c-0.301-0.734-0.675-1.433-1.109-2.084
			c-0.434-0.664-0.94-1.279-1.495-1.834s-1.181-1.061-1.832-1.507c-0.663-0.422-1.362-0.797-2.086-1.098
			c-0.723-0.301-1.483-0.541-2.254-0.686c-1.555-0.315-3.159-0.315-4.714,0c-0.772,0.145-1.531,0.385-2.254,0.686
			c-0.723,0.301-1.423,0.676-2.086,1.097c-0.651,0.446-1.278,0.952-1.833,1.507c-0.555,0.555-1.061,1.169-1.495,1.834
			c-0.434,0.651-0.808,1.35-1.109,2.084c-0.301,0.725-0.53,1.483-0.687,2.254c-0.157,0.772-0.241,1.567-0.241,2.351
			c0,3.171,1.29,6.281,3.544,8.524c2.242,2.241,5.341,3.532,8.523,3.532c0.784,0,1.567-0.084,2.351-0.229
			c0.772-0.157,1.531-0.398,2.254-0.699c0.723-0.301,1.423-0.675,2.086-1.109c0.651-0.433,1.278-0.939,1.832-1.494
			c2.242-2.242,3.532-5.353,3.532-8.523C325.575,189.417,325.491,188.62,325.334,187.849z"/>
	</g>
</g>
<g>
	<g>
		<path d="M87.908,173.104c-10.754-4.012-22.473-3.346-33.002,1.88c-10.264,5.094-18.173,13.946-22.272,24.933
			c-10.016,26.847,8.121,65.747,10.222,70.095c2.075,4.288,6.37,6.81,10.862,6.81c1.602,0,3.23-0.322,4.789-0.997
			c4.438-1.924,43.648-19.565,53.606-46.258C120.678,206.607,109.821,181.278,87.908,173.104z M89.523,221.138
			c-3.638,9.751-17.414,20.059-29.6,26.993c-4.299-12.122-8.603-29.32-4.698-39.789c1.949-5.224,5.642-9.401,10.398-11.76
			c4.493-2.23,9.413-2.545,13.856-0.887C88.935,199.222,93.44,210.636,89.523,221.138z"/>
	</g>
</g>
<g>
	<g>
		<path d="M426.728,10.165c-47.019,0-85.272,38.252-85.272,85.271v152.231H214.83v-45.411h62.516
			c6.659,0,12.056-5.399,12.056-12.056c0-6.657-5.397-12.056-12.056-12.056H214.83V95.436c0-11.117,9.043-20.16,20.16-20.16
			s20.16,9.043,20.16,20.16v19.916c0,6.657,5.397,12.056,12.056,12.056h41.001c6.659,0,12.056-5.399,12.056-12.056V95.436
			c0-47.019-38.253-85.271-85.272-85.271c-47.019,0-85.272,38.252-85.272,85.271v204.045c-13.811-2.115-25.291-12.234-28.847-26.076
			c-1.37-5.329-6.174-9.055-11.677-9.055h-3.848c-5.502,0-10.307,3.727-11.676,9.055c-4.011,15.604-18.084,26.502-34.224,26.502
			c-16.139,0-30.213-10.898-34.223-26.502c-1.37-5.329-6.174-9.055-11.676-9.055h-1.489C5.397,264.35,0,269.749,0,276.406v95.319
			v117.46v0.596c0,6.657,5.397,12.056,12.056,12.056h477.366c6.658,0,12.056-5.399,12.056-12.056v-0.596v-117.46v-95.319
			c0-6.657-5.397-12.056-12.056-12.056h-1.489c-5.502,0-10.307,3.727-11.676,9.055c-4.011,15.604-18.084,26.502-34.223,26.502
			c-16.14,0-30.213-10.898-34.223-26.502c-0.28-1.086-0.708-2.092-1.242-3.019V95.436c0-11.117,9.043-20.16,20.16-20.16
			s20.16,9.043,20.16,20.16v19.916c0,6.657,5.397,12.056,12.056,12.056h41.001c6.658,0,12.056-5.399,12.056-12.056V95.436
			C512,48.417,473.747,10.165,426.728,10.165z M341.455,271.778v27.76c-14.008-1.964-25.697-12.144-29.292-26.132
			c-0.145-0.563-0.335-1.103-0.553-1.628H341.455z M285.517,271.778c-0.219,0.526-0.41,1.066-0.555,1.628
			c-4.011,15.604-18.084,26.502-34.223,26.502c-16.139,0-30.213-10.898-34.223-26.502c-0.146-0.565-0.341-1.103-0.558-1.628H285.517
			z M214.831,311.957c10.068,7.625,22.566,12.063,35.91,12.063c19.313,0,36.868-9.283,47.823-24.097
			c10.015,13.541,25.549,22.437,42.894,23.869v71.065c-14.01-1.964-25.7-12.144-29.295-26.132c-1.37-5.33-6.174-9.055-11.676-9.055
			h-3.848c-5.502,0-10.307,3.725-11.676,9.055c-4.011,15.604-18.084,26.502-34.223,26.502c-16.139,0-30.213-10.898-34.223-26.502
			c-0.351-1.366-0.93-2.623-1.685-3.742V311.957z M173.828,95.436c0.001-33.724,27.437-61.159,61.162-61.159
			c33.725,0,61.161,27.437,61.161,61.159v7.86h-16.889v-7.86c0-24.411-19.861-44.272-44.272-44.272s-44.272,19.861-44.272,44.272
			v269.997c-0.615,1.004-1.098,2.105-1.403,3.291c-2.316,9.012-7.999,16.435-15.487,21.115V95.436z M24.112,312.4
			c9.967,7.358,22.246,11.621,35.333,11.621c19.314,0,36.868-9.283,47.823-24.097c9.928,13.425,25.284,22.282,42.449,23.83v71.048
			c-13.811-2.115-25.291-12.234-28.847-26.076c-1.37-5.329-6.174-9.055-11.677-9.055h-3.848c-5.502,0-10.307,3.725-11.676,9.055
			c-4.011,15.604-18.084,26.502-34.224,26.502c-16.139,0-30.213-10.898-34.223-26.502c-0.256-0.996-0.632-1.934-1.109-2.804V312.4z
			 M477.365,477.129H24.112v-69.411c9.967,7.359,22.246,11.621,35.333,11.621c19.314,0,36.868-9.283,47.823-24.097
			c10.955,14.814,28.51,24.097,47.823,24.097s36.868-9.283,47.823-24.097c10.955,14.814,28.51,24.097,47.823,24.097
			s36.868-9.283,47.823-24.097c10.955,14.814,28.511,24.097,47.823,24.097c19.315,0,36.869-9.283,47.825-24.097
			c10.955,14.814,28.51,24.097,47.823,24.097c13.087,0,25.367-4.262,35.332-11.621V477.129z M442.034,324.021
			c13.087,0,25.367-4.262,35.332-11.621v53.521c-0.477,0.869-0.854,1.808-1.109,2.804c-4.011,15.604-18.084,26.502-34.223,26.502
			c-16.14,0-30.213-10.898-34.223-26.502c-0.279-1.081-0.704-2.093-1.242-3.025v-53.412
			C416.56,319.708,428.886,324.021,442.034,324.021z M470.999,103.297v-7.86c0-24.411-19.86-44.272-44.272-44.272
			c-24.412,0-44.272,19.861-44.272,44.272v269.322c-0.833,1.175-1.473,2.508-1.848,3.966c-2.27,8.836-7.77,16.156-15.042,20.851
			V95.436c0-33.724,27.437-61.159,61.161-61.159c33.724,0,61.161,27.437,61.161,61.159v7.86H470.999z"/>
	</g>
</g>
</svg>